<svg xmlns="http://www.w3.org/2000/svg" width="69.479" height="74.02" viewBox="0 0 69.479 74.02"><g transform="translate(-15.701)"><g transform="translate(15.701)"><path d="M200.273,11.45a11.45,11.45,0,1,0-22.9,0c0,5.783,4.742,16.654,11.45,16.654S200.273,17.233,200.273,11.45Zm-11.45,14.226c-4.742,0-9.137-8.905-9.137-14.341a9.137,9.137,0,0,1,18.274.116C197.96,16.77,193.565,25.676,188.823,25.676Z" transform="translate(-154)" fill="#fff"/><path d="M18.256,215.908l13.416-27.873,8.674-2.2a1.136,1.136,0,0,0-.578-2.2l-9.252,2.313a2.075,2.075,0,0,0-.81.578L15.827,215.445a1.064,1.064,0,0,0,.116,1.157L25.2,230.481a1.052,1.052,0,0,0,.925.463,1.643,1.643,0,0,0,.694-.231,1.138,1.138,0,0,0,.347-1.619Z" transform="translate(-15.701 -157.039)" fill="#fff"/><path d="M427.552,352.95l-3.932-8.1a1.139,1.139,0,0,0-2.082.925l3.585,7.518-8.905,13.3a1.137,1.137,0,0,0,.347,1.619,1.644,1.644,0,0,0,.694.231,1.428,1.428,0,0,0,.925-.463l9.252-13.879A1.368,1.368,0,0,0,427.552,352.95Z" transform="translate(-358.149 -294.428)" fill="#fff"/><path d="M430.449,297.779l1.157,2.313a1.111,1.111,0,0,0,1.041.694.7.7,0,0,0,.463-.116,1.148,1.148,0,0,0,.578-1.5l-1.157-2.313a1.139,1.139,0,0,0-2.082.925Z" transform="translate(-370.413 -253.367)" fill="#fff"/><path d="M320.442,185.478a1.189,1.189,0,0,0,.81,1.388l8.674,2.2,4.395,9.137a1.111,1.111,0,0,0,1.041.694.7.7,0,0,0,.463-.116,1.148,1.148,0,0,0,.578-1.5l-4.511-9.715a.87.87,0,0,0-.81-.578l-9.252-2.313A1.189,1.189,0,0,0,320.442,185.478Z" transform="translate(-276.367 -157.952)" fill="#fff"/><path d="M124.836,240.406a1.1,1.1,0,0,0-1.5.231l-2.313,3.47a1.644,1.644,0,0,0-.231.694v9.368l-15.613,9.252a1.281,1.281,0,0,0-.463,1.619,1.215,1.215,0,0,0,1.041.578,1.043,1.043,0,0,0,.578-.116l16.192-9.6a1.215,1.215,0,0,0,.578-1.041v-9.715l2.082-3.123A1.138,1.138,0,0,0,124.836,240.406Z" transform="translate(-91.748 -205.478)" fill="#fff"/><path d="M284.342,262.776l-15.613-9.252v-9.368a1.644,1.644,0,0,0-.231-.694l-2.313-3.47a1.171,1.171,0,0,0-1.966,1.272l2.082,3.123v9.831h.116a1.215,1.215,0,0,0,.578,1.041l16.192,9.6a1.043,1.043,0,0,0,.578.116,1.38,1.38,0,0,0,1.041-.578A1.17,1.17,0,0,0,284.342,262.776Z" transform="translate(-228.123 -204.833)" fill="#fff"/><path d="M152.69,376.137l-12.144,10.409a1.124,1.124,0,0,0-.116,1.619,1.313,1.313,0,0,0,.925.347,2.144,2.144,0,0,0,.81-.231l12.144-10.409a1.124,1.124,0,0,0,.116-1.619A1.388,1.388,0,0,0,152.69,376.137Z" transform="translate(-122.146 -321.547)" fill="#fff"/><path d="M113.934,464.137l-1.388,1.157a1.124,1.124,0,0,0-.116,1.619,1.313,1.313,0,0,0,.925.347,2.143,2.143,0,0,0,.81-.231l1.388-1.156a1.124,1.124,0,0,0,.116-1.619A1.4,1.4,0,0,0,113.934,464.137Z" transform="translate(-98.194 -396.825)" fill="#fff"/><path d="M291.739,390.078,274.391,376.2a1.157,1.157,0,1,0-1.388,1.85l17.348,13.879a1.644,1.644,0,0,0,.694.231,1.052,1.052,0,0,0,.925-.463A1.131,1.131,0,0,0,291.739,390.078Z" transform="translate(-235.405 -321.609)" fill="#fff"/></g></g></svg>