<svg xmlns="http://www.w3.org/2000/svg" width="72.26" height="52.907" viewBox="0 0 72.26 52.907"><g transform="translate(0 -68.243)"><g transform="translate(0 68.243)"><g transform="translate(0 0)"><path d="M70.672,124.546a5.477,5.477,0,0,0-7.714,0l-.567.567-.567-.567a5.477,5.477,0,0,0-7.714,0,5.278,5.278,0,0,0-1.361,5.332H50.139a1.4,1.4,0,0,0-.908.454,1.525,1.525,0,0,0-.227,1.021c.113.34,8.394,28.473-8.508,33.8-.567.227-12.818,4.084-20.192-7.487a1.4,1.4,0,0,0-1.134-.567l-18.15,2.269A1.329,1.329,0,0,0,0,160.619a1.329,1.329,0,0,0,1.248,1.021l17.469-2.155a19.01,19.01,0,0,0,16.335,8.621,21.8,21.8,0,0,0,6.012-.794c7.941-2.5,12.138-9.642,12.251-20.759A65.757,65.757,0,0,0,51.5,132.26h2.382c.113-.113.113,0,.227,0l7.487,7.487a1.1,1.1,0,0,0,1.588,0l7.487-7.487a5.477,5.477,0,0,0,0-7.714Zm-1.588,6.126-6.693,6.693-5.332-5.332a1.09,1.09,0,0,0,.794-1.021,1.072,1.072,0,0,0-1.134-1.134H55.131a3.106,3.106,0,0,1,.567-3.743,3.29,3.29,0,0,1,4.538,0L61.6,127.5a1.1,1.1,0,0,0,1.588,0l1.361-1.361a3.218,3.218,0,0,1,4.538,0,3.29,3.29,0,0,1,0,4.538Z" transform="translate(0 -115.2)" fill="#fff"/><path d="M321.134,159.161a1.072,1.072,0,0,0,1.134-1.134v-1.134a1.134,1.134,0,1,0-2.269,0v1.134A1.072,1.072,0,0,0,321.134,159.161Z" transform="translate(-274.625 -143.349)" fill="#fff"/><path d="M11.4,339.758H9.134a1.134,1.134,0,0,0,0,2.269H11.4a1.134,1.134,0,0,0,0-2.269Z" transform="translate(-6.866 -301.258)" fill="#fff"/><path d="M11.4,307.758H9.134a1.134,1.134,0,0,0,0,2.269H11.4a1.134,1.134,0,0,0,0-2.269Z" transform="translate(-6.866 -273.795)" fill="#fff"/><path d="M8.857,121.018c6.693,7.941,14.18,11.911,21.667,11.8a5.587,5.587,0,0,1-2.382,2.155c-3.517,1.7-10.89,2.042-26.2-5.785a1.091,1.091,0,1,0-1.021,1.928c9.075,4.764,16.562,7.033,22.12,7.033a14.373,14.373,0,0,0,6.126-1.248,7.759,7.759,0,0,0,4.311-4.991,1.157,1.157,0,0,0-.227-1.021,1.387,1.387,0,0,0-1.021-.34c-5.9.794-11.23-1.475-15.541-4.878h5.1a1.134,1.134,0,0,0,0-2.269H13.962a43.555,43.555,0,0,1-3.176-3.4h6.466a1.134,1.134,0,1,0,0-2.269H9.311a.417.417,0,0,0-.34.113l-1.7-2.382h7.714a1.134,1.134,0,0,0,0-2.269H7.042a1.4,1.4,0,0,0-.908.454c-1.248-1.928-2.155-3.63-2.836-4.878l18.831,2.042a28.451,28.451,0,0,0,3.97,6.466,33.2,33.2,0,0,0,7.373,6.466c.113,0,.113.113.227.113l.681.227c2.609,1.021,4.424,1.815,7.487-.113,2.042-1.361,1.815-3.517,1.588-5.332,0-.454-.113-.794-.113-1.248-.113-2.269.34-3.29.681-3.743a4.2,4.2,0,0,1,2.836-1.361,2.345,2.345,0,0,1,1.588.34,1.517,1.517,0,0,1,.794.908,1.168,1.168,0,0,0,2.042-1.134,4.548,4.548,0,0,0-1.588-1.7,4.407,4.407,0,0,0-3.063-.681,7.09,7.09,0,0,0-4.424,2.155c-.794,1.021-1.248,2.723-1.134,5.218,0,.454.113.908.113,1.361.227,1.928.227,2.609-.567,3.176-2.042,1.248-2.949.908-5.332-.113l-.567-.227a26.484,26.484,0,0,1-6.806-6.012,28.451,28.451,0,0,1-3.97-6.466c-.113-.34-.567-.567-.908-.681L1.483,106.158a1.106,1.106,0,0,0-1.021.454,1.342,1.342,0,0,0-.113,1.134A60.109,60.109,0,0,0,8.857,121.018Z" transform="translate(-0.236 -100.782)" fill="#fff"/><path d="M128.956,74.186a1.077,1.077,0,0,0,1.361.794,1.125,1.125,0,0,0,.794-1.361l-.454-1.928,8.621,5.218c.681,1.815,3.4,8.848,7.147,11.457a1.612,1.612,0,0,0,.681.227,1.032,1.032,0,0,0,.908-.454,1.116,1.116,0,0,0-.34-1.588c-3.63-2.5-6.353-10.663-6.353-10.777a1.133,1.133,0,0,0-.454-.567L129.523,68.4a1.032,1.032,0,0,0-1.248.113,1.159,1.159,0,0,0-.454,1.134Z" transform="translate(-109.671 -68.243)" fill="#fff"/><path d="M285.8,363.586c-.794-.113-1.475.113-1.7.681a3.289,3.289,0,0,1-2.5,1.588,1.124,1.124,0,0,0-.908,1.248,1.1,1.1,0,0,0,1.134.908h.227a5.984,5.984,0,0,0,4.311-2.949A1.126,1.126,0,0,0,285.8,363.586Z" transform="translate(-240.877 -321.683)" fill="#fff"/></g></g></g></svg>