<svg xmlns="http://www.w3.org/2000/svg" width="73.185" height="73.113" viewBox="0 0 73.185 73.113"><g transform="translate(0 -0.248)"><g transform="translate(0 0.248)"><g transform="translate(0 0)"><path d="M176.1,16.192a15.944,15.944,0,1,0-15.944,15.944A15.991,15.991,0,0,0,176.1,16.192ZM169.6,17.444l-3.416-1.139a1.153,1.153,0,0,0-.8,2.164l2.619.911v7.972a14.189,14.189,0,0,1-6.833,2.505V19.608a1.139,1.139,0,1,0-2.278,0V29.744a14.189,14.189,0,0,1-6.833-2.505V19.267l2.619-.911a1.153,1.153,0,1,0-.8-2.164l-3.416,1.139a1.82,1.82,0,0,0-.569,1.139v6.719a13.38,13.38,0,0,1-3.417-9,13.666,13.666,0,0,1,27.332,0,13.38,13.38,0,0,1-3.417,9V18.469A1.094,1.094,0,0,0,169.6,17.444Z" transform="translate(-123.679 -0.248)" fill="#fff"/><path d="M221.9,32.248a5.639,5.639,0,0,0-5.694,5.694c0,3.189,2.505,6.833,5.694,6.833s5.694-3.644,5.694-6.833A5.639,5.639,0,0,0,221.9,32.248Zm0,10.25c-1.708,0-3.417-2.619-3.417-4.555a3.417,3.417,0,0,1,6.833,0C225.319,39.878,223.61,42.5,221.9,42.5Z" transform="translate(-185.43 -27.693)" fill="#fff"/><path d="M280.208,145.387a1.076,1.076,0,0,0,1.139,1.139h1.139a1.139,1.139,0,0,0,0-2.278h-1.139A1.076,1.076,0,0,0,280.208,145.387Z" transform="translate(-240.319 -123.749)" fill="#fff"/><path d="M28.273,162.268l-3.417,1.139a1.376,1.376,0,0,0-.8.8l-1.936,7.63-8.655-4.783L7.66,157.941l4.214.683,4.328,8.541c.114.228.342.456.456.456l2.278,1.139c.114.228.228.228.456.228a1.094,1.094,0,0,0,1.025-.683,1.2,1.2,0,0,0-.456-1.48L18.023,165.8l-4.441-8.769a.856.856,0,0,0-.8-.569l-6.833-1.139-.456-.683-.342-.342-3.417-2.278a1.234,1.234,0,0,0-1.253,0,1.264,1.264,0,0,0-.456,1.253l5.694,21.752a2.489,2.489,0,0,0,.342.569l11.958,9.794-3.189,16.4a1.153,1.153,0,0,0,.911,1.367h.228a1.109,1.109,0,0,0,1.139-.911l3.417-17.083a1.376,1.376,0,0,0-.342-1.139L7.887,174l-4.9-18.335.683.456,7.858,12.3c.114.114.228.342.456.342l10.25,5.694a.854.854,0,0,0,1.025,0,1.2,1.2,0,0,0,.683-.8l2.164-8.541,1.367-.456v30.521a1.139,1.139,0,1,0,2.278,0V163.293a1.406,1.406,0,0,0-.456-.911A1.107,1.107,0,0,0,28.273,162.268Z" transform="translate(0 -130.267)" fill="#fff"/><path d="M333.59,154.419a1.234,1.234,0,0,0-1.253,0l-3.416,2.278c-.456-.228-.569-.114-.569.114l-.456.569-6.833,1.139a1.452,1.452,0,0,0-.8.569l-4.441,8.769-1.936,1.025a1,1,0,0,0-.456,1.48,1.094,1.094,0,0,0,1.025.683.685.685,0,0,0,.456-.114l2.278-1.139c.228-.114.456-.342.456-.456l4.328-8.541,4.214-.683-5.808,9.111-8.655,4.783-1.822-7.744a1.125,1.125,0,0,0-.8-.8l-3.416-1.139a1.107,1.107,0,0,0-1.025.114,1.406,1.406,0,0,0-.456.911v31.887a1.139,1.139,0,0,0,2.278,0V166.946l1.367.456,2.164,8.541a1.2,1.2,0,0,0,.683.8,1.58,1.58,0,0,0,1.025,0l10.249-5.694c.114-.114.342-.228.456-.342l7.858-12.3.683-.456-4.783,18.335L314,186.306a1.031,1.031,0,0,0-.342,1.139l3.417,17.083a1.109,1.109,0,0,0,1.139.911h.228a1.181,1.181,0,0,0,.911-1.367l-3.3-16.4,11.958-9.794a.626.626,0,0,0,.342-.569l5.694-21.638A1.137,1.137,0,0,0,333.59,154.419Z" transform="translate(-260.903 -132.325)" fill="#fff"/><path d="M193.347,480.248a1.076,1.076,0,0,0-1.139,1.139v2.278a1.139,1.139,0,1,0,2.278,0v-2.278A1.076,1.076,0,0,0,193.347,480.248Z" transform="translate(-164.846 -411.918)" fill="#fff"/><path d="M305.347,480.248a1.076,1.076,0,0,0-1.139,1.139v2.278a1.139,1.139,0,1,0,2.278,0v-2.278A1.076,1.076,0,0,0,305.347,480.248Z" transform="translate(-260.903 -411.918)" fill="#fff"/></g></g></g></svg>