<svg xmlns="http://www.w3.org/2000/svg" width="17.519" height="14.23" viewBox="0 0 17.519 14.23"><g transform="translate(-0.001 -57.441)"><g transform="translate(0.001 57.441)"><path d="M17.519,59.125a7.176,7.176,0,0,1-2.063.566,3.609,3.609,0,0,0,1.58-1.987,7.245,7.245,0,0,1-2.284.872,3.6,3.6,0,0,0-6.124,3.276A10.2,10.2,0,0,1,1.222,58.1a3.6,3.6,0,0,0,1.112,4.8,3.594,3.594,0,0,1-1.628-.451v.045a3.6,3.6,0,0,0,2.882,3.524,3.64,3.64,0,0,1-.947.126,3.45,3.45,0,0,1-.677-.067,3.6,3.6,0,0,0,3.356,2.5A7.21,7.21,0,0,1,.858,70.1,7.637,7.637,0,0,1,0,70.054a10.158,10.158,0,0,0,5.508,1.617A10.154,10.154,0,0,0,15.734,61.446l-.012-.465A7.176,7.176,0,0,0,17.519,59.125Z" transform="translate(-0.001 -57.441)" fill="#fff"/></g></g></svg>