<svg xmlns="http://www.w3.org/2000/svg" width="20.012" height="20.012" viewBox="0 0 20.012 20.012"><path d="M17.081,2.931a10.006,10.006,0,0,0-14.15,14.15,10.006,10.006,0,0,0,14.15-14.15Zm-.829,13.321A8.833,8.833,0,1,1,3.76,3.76,8.833,8.833,0,1,1,16.252,16.252Z" fill="#f3a94b"/><g transform="translate(2.298 2.298)"><path d="M66.5,58.788A7.708,7.708,0,1,0,74.2,66.5,7.717,7.717,0,0,0,66.5,58.788Zm0,14.244A6.536,6.536,0,1,1,73.032,66.5,6.543,6.543,0,0,1,66.5,73.032Z" transform="translate(-58.788 -58.788)" fill="#f3a94b"/></g><g transform="translate(7.915 6.709)"><path d="M204,171.643V174.7l-1.505,1.505.829.829,1.849-1.849v-3.54Z" transform="translate(-202.493 -171.643)" fill="#f3a94b"/></g><g transform="translate(9.42 4.36)"><rect width="1.173" height="1.239" fill="#f3a94b"/></g><g transform="translate(5.599 5.599)"><rect width="1.173" height="1.239" transform="translate(0 0.829) rotate(-45)" fill="#f3a94b"/></g><g transform="translate(4.36 9.42)"><rect width="1.239" height="1.173" fill="#f3a94b"/></g><g transform="translate(5.599 12.708)"><g transform="translate(0 0)"><rect width="1.239" height="1.173" transform="translate(0 0.876) rotate(-45)" fill="#f3a94b"/></g></g><g transform="translate(9.42 14.413)"><rect width="1.173" height="1.239" fill="#f3a94b"/></g><g transform="translate(12.707 12.708)"><rect width="1.173" height="1.239" transform="translate(0 0.829) rotate(-45)" fill="#f3a94b"/></g><g transform="translate(14.413 9.42)"><rect width="1.239" height="1.173" fill="#f3a94b"/></g><g transform="translate(12.707 5.599)"><g transform="translate(0 0)"><rect width="1.239" height="1.173" transform="translate(0 0.876) rotate(-45)" fill="#f3a94b"/></g></g></svg>