<svg xmlns="http://www.w3.org/2000/svg" width="16.153" height="22.037" viewBox="0 0 16.153 22.037"><path d="M8.076,0A8.085,8.085,0,0,0,0,8.076c0,2.046,1.289,4.936,3.831,8.591a57.641,57.641,0,0,0,3.763,4.826l.482.543.482-.543a57.72,57.72,0,0,0,3.763-4.826c2.542-3.655,3.831-6.545,3.831-8.591A8.086,8.086,0,0,0,8.076,0Zm3.194,15.921c-1.256,1.807-2.526,3.362-3.194,4.156-.667-.791-1.932-2.341-3.187-4.145-2.356-3.386-3.6-6.1-3.6-7.855a6.788,6.788,0,0,1,13.576,0c0,1.751-1.243,4.463-3.594,7.845Zm0,0" fill="#f3a94b"/><path d="M81.666,69.352a4.767,4.767,0,1,0,4.767,4.767A4.772,4.772,0,0,0,81.666,69.352Zm0,8.245a3.478,3.478,0,1,1,3.478-3.478A3.482,3.482,0,0,1,81.666,77.6Zm0,0" transform="translate(-73.589 -66.367)" fill="#f3a94b"/></svg>