<svg xmlns="http://www.w3.org/2000/svg" width="15.022" height="15.022" viewBox="0 0 15.022 15.022"><g transform="translate(0)"><path d="M10.877,0H4.146A4.15,4.15,0,0,0,0,4.146v6.731a4.15,4.15,0,0,0,4.146,4.146h6.731a4.15,4.15,0,0,0,4.146-4.146V4.146A4.15,4.15,0,0,0,10.877,0ZM13.69,10.877a2.816,2.816,0,0,1-2.813,2.813H4.146a2.816,2.816,0,0,1-2.813-2.813V4.146A2.816,2.816,0,0,1,4.146,1.333h6.731A2.816,2.816,0,0,1,13.69,4.146v6.731Z" fill="#fff"/><path d="M44.839,40.97a3.871,3.871,0,1,0,3.871,3.871A3.875,3.875,0,0,0,44.839,40.97Zm0,6.409a2.538,2.538,0,1,1,2.538-2.538A2.541,2.541,0,0,1,44.839,47.379Z" transform="translate(-37.328 -37.33)" fill="#fff"/><path d="M119.9,28.251a.977.977,0,1,0,.691.286A.981.981,0,0,0,119.9,28.251Z" transform="translate(-108.354 -25.741)" fill="#fff"/></g></svg>