<svg xmlns="http://www.w3.org/2000/svg" width="51" height="71.934" viewBox="0 0 51 71.934"><g transform="translate(16.719 19.412)"><path d="M197.364,138.172h-2.81a1.054,1.054,0,1,0,0,2.107h1.777a1.054,1.054,0,0,0,2.086-.211v-.843A1.054,1.054,0,0,0,197.364,138.172Z" transform="translate(-193.5 -138.172)" fill="#f3a94b"/></g><g transform="translate(27.959 19.412)"><path d="M277.364,138.172h-2.81a1.054,1.054,0,0,0-1.054,1.054v.843a1.054,1.054,0,0,0,2.086.211h1.777a1.054,1.054,0,0,0,0-2.107Z" transform="translate(-273.5 -138.172)" fill="#f3a94b"/></g><g transform="translate(31.682 64.557)"><ellipse cx="1.054" cy="1.054" rx="1.054" ry="1.054" fill="#f3a94b"/></g><g transform="translate(0)"><path d="M120.2,41.891a7.362,7.362,0,0,0-1.776-6.135,7.365,7.365,0,0,0,.284-9.49,20.3,20.3,0,1,0-38.819,0,7.364,7.364,0,0,0,.284,9.49,7.371,7.371,0,0,0-1.382,7.574A10.458,10.458,0,0,0,74.5,51.772V70.88a1.054,1.054,0,0,0,1.054,1.054h48.892A1.054,1.054,0,0,0,125.5,70.88V51.772A11.869,11.869,0,0,0,120.2,41.891Zm-3.964-5.316a5.25,5.25,0,0,1,1.959,4.1c0,.047,0,.093,0,.14a11.8,11.8,0,0,0-4.468-.91,14.7,14.7,0,0,0,.258-2.742V27.736a5.248,5.248,0,0,0,2.208-1.03,5.263,5.263,0,0,1,.048,8.231,1.054,1.054,0,0,0,0,1.638ZM85.669,23.463a1.054,1.054,0,0,0-1.054,1.054v1.037a3.16,3.16,0,0,1,.018-5.966q-.017.355-.018.714a1.054,1.054,0,0,0,2.107,0,12.554,12.554,0,0,1,.4-3.161h2.758A10.48,10.48,0,0,0,99.3,11.248a10.48,10.48,0,0,0,9.413,5.892h2.758a12.554,12.554,0,0,1,.4,3.161,1.054,1.054,0,0,0,2.107,0q0-.359-.018-.714a3.16,3.16,0,0,1,.018,5.966V24.516a1.054,1.054,0,0,0-2.107,0v3.161h-6.344a7.656,7.656,0,0,0-12.461,0H86.723V24.516A1.054,1.054,0,0,0,85.669,23.463Zm2.212-8.43A12.6,12.6,0,0,1,98.169,7.779a8.37,8.37,0,0,1-8.284,7.254Zm12.545-7.254a12.6,12.6,0,0,1,10.287,7.254h-2A8.37,8.37,0,0,1,100.426,7.779ZM99.3,2.107a18.215,18.215,0,0,1,18.19,17.835,5.28,5.28,0,0,0-3.8-2.582,14.684,14.684,0,0,0-28.771,0,5.28,5.28,0,0,0-3.8,2.582A18.215,18.215,0,0,1,99.3,2.107ZM82.36,34.937a5.263,5.263,0,0,1,.048-8.231,5.248,5.248,0,0,0,2.208,1.03v9.425a14.691,14.691,0,0,0,.594,4.145h-.243a10.4,10.4,0,0,0-4.325.939,5.261,5.261,0,0,1,1.718-5.67,1.054,1.054,0,0,0,0-1.638Zm7.053,34.889H85.037v-14.4a1.054,1.054,0,1,0-2.107,0v14.4H76.607V51.772a8.369,8.369,0,0,1,8.359-8.359H86.01a14.729,14.729,0,0,0,1.425,2.4,1.054,1.054,0,0,0,1.7-1.243,12.479,12.479,0,0,1-2.415-7.409V29.785h6.911a1.054,1.054,0,0,0,.9-.511,5.55,5.55,0,0,1,9.521,0,1.054,1.054,0,0,0,.9.511h6.911v7.376a12.574,12.574,0,0,1-19.983,10.16,1.054,1.054,0,1,0-1.243,1.7,14.571,14.571,0,0,0,8.652,2.82q.4,0,.793-.022Zm33.979,0h-7.727v-14.4a1.054,1.054,0,1,0-2.107,0v14.4H91.864l10.912-18.4a14.741,14.741,0,0,0,10.381-9.417h.472a9.776,9.776,0,0,1,9.764,9.764Z" transform="translate(-74.5)" fill="#f3a94b"/></g><g transform="translate(23.041 29.785)"><path d="M240.959,212h-1.4a1.054,1.054,0,1,0,0,2.107h1.4a1.054,1.054,0,0,0,0-2.107Z" transform="translate(-238.5 -212)" fill="#f3a94b"/></g><g transform="translate(39.455 46.057)"><g transform="translate(0 0)"><ellipse cx="1" cy="1.5" rx="1" ry="1.5" transform="translate(-0.057 -0.057)" fill="#f3a94b"/></g></g><g transform="translate(42.825 50.551)"><g transform="translate(0 0)"><ellipse cx="2" cy="1" rx="2" ry="1" transform="translate(-0.427 0.449)" fill="#f3a94b"/></g></g></svg>