<svg xmlns="http://www.w3.org/2000/svg" width="63.925" height="71.933" viewBox="0 0 63.925 71.933"><g transform="translate(0)"><path d="M91.372,0a1.054,1.054,0,0,0-1.054,1.054V1.4H30.607V1.054a1.054,1.054,0,0,0-2.107,0V8.078a1.054,1.054,0,0,0,2.107,0V7.727h2.107V58.235a1.054,1.054,0,0,0,.6.952L60.012,71.832a1.054,1.054,0,0,0,.9,0L87.608,59.187a1.054,1.054,0,0,0,.6-.952V7.727h2.107v.351a1.054,1.054,0,0,0,2.107,0V1.054A1.054,1.054,0,0,0,91.372,0ZM32.715,5.62H30.607V3.512h2.107ZM67.656,3.512h6.168V5.62H67.656Zm-20.554,0h6.168V5.62H47.1Zm39,54.056L60.463,69.714,34.822,57.568V3.512H44.994V6.674a1.054,1.054,0,0,0,1.054,1.054h8.275a1.054,1.054,0,0,0,1.054-1.054V3.512H65.548V6.674A1.054,1.054,0,0,0,66.6,7.727h8.275a1.054,1.054,0,0,0,1.054-1.054V3.512H86.1ZM90.318,5.62H88.211V3.512h2.107Z" transform="translate(-28.5)" fill="#2b8979"/></g><g transform="translate(28.984 5.62)"><path d="M239.7,40h-3.849a1.054,1.054,0,0,0,0,2.107H239.7a1.054,1.054,0,0,0,0-2.107Z" transform="translate(-234.8 -40)" fill="#2b8979"/></g><g transform="translate(8.43 5.62)"><path d="M134.512,40h-3.85a1.054,1.054,0,0,0,0,2.107h2.8V89.35L112.033,99.376,90.607,89.35V42.107h2.8A1.054,1.054,0,0,0,93.4,40H89.554A1.054,1.054,0,0,0,88.5,41.054V90.02a1.054,1.054,0,0,0,.607.954l22.479,10.519a1.054,1.054,0,0,0,.893,0l22.479-10.519a1.054,1.054,0,0,0,.607-.954V41.054A1.054,1.054,0,0,0,134.512,40Z" transform="translate(-88.5 -40)" fill="#2b8979"/></g><g transform="translate(14.752 11.942)"><path d="M166.868,98.347h-7.5a9.494,9.494,0,0,0-1.253-2.051l3.771-3.771a1.054,1.054,0,0,0-1.49-1.49l-3.771,3.771a9.5,9.5,0,0,0-2.051-1.253v-7.5A1.054,1.054,0,0,0,153.521,85H147.9a1.054,1.054,0,0,0-1.054,1.054v7.5a9.5,9.5,0,0,0-2.051,1.253l-3.771-3.771a1.054,1.054,0,0,0-1.49,1.49l3.771,3.771a9.5,9.5,0,0,0-1.253,2.051h-7.5A1.054,1.054,0,0,0,133.5,99.4v5.62a1.054,1.054,0,0,0,1.054,1.054h7.5a9.492,9.492,0,0,0,1.253,2.051l-3.771,3.771a1.054,1.054,0,0,0,1.49,1.49l3.771-3.771a9.5,9.5,0,0,0,2.051,1.253v20a1.054,1.054,0,0,0,1.054,1.054h5.62a1.054,1.054,0,0,0,1.054-1.054v-20a9.5,9.5,0,0,0,2.051-1.253l3.771,3.771a1.054,1.054,0,0,0,1.49-1.49l-3.771-3.771a9.5,9.5,0,0,0,1.253-2.051h7.5a1.054,1.054,0,0,0,1.054-1.054V99.4A1.054,1.054,0,0,0,166.868,98.347Zm-25.475,5.62h-5.785v-3.512h5.785a9.394,9.394,0,0,0,0,3.512Zm7.562-16.859h3.512v5.785a9.393,9.393,0,0,0-3.512,0Zm3.512,42.71h-3.512v-18.29a9.392,9.392,0,0,0,3.512,0Zm-1.756-20.231a7.376,7.376,0,1,1,7.376-7.376A7.384,7.384,0,0,1,150.711,109.587Zm15.1-5.62h-5.785a9.392,9.392,0,0,0,0-3.512h5.785Z" transform="translate(-133.5 -85)" fill="#2b8979"/></g></svg>