<svg xmlns="http://www.w3.org/2000/svg" width="41.446" height="71.933" viewBox="0 0 41.446 71.933"><g transform="translate(0)"><path d="M148.892,31.892h-13v-14.4a1.054,1.054,0,0,0-1.054-1.054h-4.566V14.289A13.294,13.294,0,0,0,142.5,1.054a1.054,1.054,0,0,0-2.107,0,11.184,11.184,0,0,1-10.116,11.118v-.3a1.054,1.054,0,0,0-2.107,0v.3A11.184,11.184,0,0,1,118.054,1.054a1.054,1.054,0,0,0-2.107,0,13.3,13.3,0,0,0,12.223,13.235v2.149H123.6a1.054,1.054,0,0,0-1.054,1.054v14.4h-13a1.054,1.054,0,0,0-1.054,1.054v9.835a1.054,1.054,0,0,0,1.054,1.054h13V70.88a1.054,1.054,0,0,0,1.054,1.054h11.24A1.054,1.054,0,0,0,135.9,70.88V43.834h13a1.054,1.054,0,0,0,1.054-1.054V32.946A1.054,1.054,0,0,0,148.892,31.892Zm-1.054,9.835h-13a1.054,1.054,0,0,0-1.054,1.054V69.826h-9.132V42.781a1.054,1.054,0,0,0-1.054-1.054h-13V34h13a1.054,1.054,0,0,0,1.054-1.054v-14.4h3.512V18.9a1.054,1.054,0,0,0,2.107,0v-.351h3.512v14.4A1.054,1.054,0,0,0,134.843,34h13Z" transform="translate(-108.5)" fill="#2b8979"/></g></svg>