<svg xmlns="http://www.w3.org/2000/svg" width="40.041" height="71.933" viewBox="0 0 40.041 71.933"><g transform="translate(0 26.975)"><path d="M152.487,234.851h-.435a6.684,6.684,0,0,0-6.59-5.62H142.8a8.7,8.7,0,0,1-3.966-6.482,3.865,3.865,0,0,0,2.239-5.651,18.628,18.628,0,0,0,11.063-17.019v-5.971h.351a1.054,1.054,0,1,0,0-2.107H114.554a1.054,1.054,0,1,0,0,2.107h.351v5.971A18.628,18.628,0,0,0,125.968,217.1a3.865,3.865,0,0,0,2.239,5.651,8.7,8.7,0,0,1-3.966,6.482h-2.663a6.684,6.684,0,0,0-6.59,5.62h-.435a1.054,1.054,0,0,0,0,2.107h37.934a1.054,1.054,0,0,0,0-2.107ZM127.55,219.045a1.751,1.751,0,0,1,.809-1.477,1.054,1.054,0,0,0-.226-1.882,16.516,16.516,0,0,1-11.12-15.608v-5.971h33.016v5.971a16.517,16.517,0,0,1-11.12,15.608,1.054,1.054,0,0,0-.226,1.882,1.755,1.755,0,0,1-.947,3.233h-8.43A1.758,1.758,0,0,1,127.55,219.045Zm2.76,3.864h6.422a10.772,10.772,0,0,0,2.817,6.322H127.493A10.771,10.771,0,0,0,130.31,222.909Zm-13.173,11.942a4.573,4.573,0,0,1,4.442-3.512h23.884a4.573,4.573,0,0,1,4.442,3.512Z" transform="translate(-113.5 -192)" fill="#f3a94b"/></g><g transform="translate(14.752 9.554)"><path d="M227.983,71.934h-3.161v-2.88a1.054,1.054,0,0,0-2.107,0v2.88h-3.161a1.054,1.054,0,1,0,0,2.107h3.161V82.26a1.054,1.054,0,1,0,2.107,0V74.041h3.161a1.054,1.054,0,1,0,0-2.107Z" transform="translate(-218.5 -68)" fill="#f3a94b"/></g><g transform="translate(2.81)"><path d="M150.711,0A17.218,17.218,0,0,0,135,24.245a1.054,1.054,0,1,0,1.923-.862,15.1,15.1,0,1,1,27.577,0,1.054,1.054,0,1,0,1.923.862A17.218,17.218,0,0,0,150.711,0Z" transform="translate(-133.5)" fill="#f3a94b"/></g><g transform="translate(17.45 50.604)"><path d="M241.789,360.183h-3.034a1.054,1.054,0,1,0,0,2.107h3.034a1.054,1.054,0,1,0,0-2.107Z" transform="translate(-237.701 -360.183)" fill="#f3a94b"/></g><g transform="translate(32.237 31.687)"><g transform="translate(0 0)"><ellipse cx="1.5" cy="0.5" rx="1.5" ry="0.5" transform="translate(-0.419 0.048)" fill="#f3a94b"/></g></g><g transform="translate(27.744 36.181)"><g transform="translate(0 0)"><circle cx="1" cy="1" r="1" transform="translate(0.075 -0.445)" fill="#f3a94b"/></g></g></svg>