<svg xmlns="http://www.w3.org/2000/svg" width="54.563" height="71.933" viewBox="0 0 54.563 71.933"><g transform="translate(0)"><path d="M116.382,30.243a7.62,7.62,0,0,0-7.547-7.61,7.609,7.609,0,0,0-13.176-7.611A7.669,7.669,0,0,0,93.4,12.6a12.346,12.346,0,0,0,8.025-11.551A1.054,1.054,0,0,0,100.372,0,12.323,12.323,0,0,0,90.155,5.438V1.053a1.054,1.054,0,0,0-2.107,0V5.442A12.322,12.322,0,0,0,77.829,0a1.054,1.054,0,0,0-1.054,1.054A12.346,12.346,0,0,0,84.8,12.606a7.669,7.669,0,0,0-2.257,2.415,7.609,7.609,0,0,0-13.176,7.611,7.611,7.611,0,0,0,0,15.221,7.6,7.6,0,0,0-.206,7.117,1.054,1.054,0,1,0,1.889-.934,5.448,5.448,0,0,1-.567-2.435,5.5,5.5,0,0,1,11.006-.111c0,.037,0,.074,0,.111s0,.074,0,.111a5.51,5.51,0,0,1-5.5,5.394,5.447,5.447,0,0,1-2.435-.567,1.054,1.054,0,0,0-.934,1.889,7.533,7.533,0,0,0,3.3.784,7.605,7.605,0,0,0,6.555,11.36,7.612,7.612,0,1,0,13.241,0,7.605,7.605,0,0,0,6.556-11.359,7.605,7.605,0,0,0,6.555-11.359A7.62,7.62,0,0,0,116.382,30.243ZM96.713,18.773a5.5,5.5,0,1,1,0,.222c0-.037,0-.074,0-.111S96.713,18.81,96.713,18.773Zm4.448,11.359c0,.037,0,.074,0,.111s0,.074,0,.111a5.5,5.5,0,0,1-11,0c0-.037,0-.074,0-.111s0-.074,0-.111a5.5,5.5,0,0,1,11,0ZM94.605,41.713a5.5,5.5,0,0,1-11,0c0-.037,0-.074,0-.111s0-.074,0-.111a5.5,5.5,0,0,1,11,0c0,.037,0,.074,0,.111S94.6,41.676,94.605,41.713ZM99.258,2.168a10.239,10.239,0,0,1-9.043,9.043A10.239,10.239,0,0,1,99.258,2.168Zm-20.315,0a10.239,10.239,0,0,1,9.043,9.043A10.239,10.239,0,0,1,78.943,2.168Zm4.658,16.6a5.5,5.5,0,0,1,11,0c0,.037,0,.074,0,.111s0,.074,0,.111a5.5,5.5,0,0,1-11,0c0-.037,0-.074,0-.111S83.6,18.81,83.6,18.773ZM69.431,35.748a5.5,5.5,0,1,1,5.5-5.5A5.511,5.511,0,0,1,69.431,35.748Zm1.057-16.864a5.5,5.5,0,0,1,11.006-.111c0,.037,0,.074,0,.111s0,.074,0,.111a5.5,5.5,0,0,1-11.006-.111Zm6.555,11.359a5.5,5.5,0,0,1,11.006-.111c0,.037,0,.074,0,.111s0,.074,0,.111a5.5,5.5,0,0,1-11.006-.111Zm0,22.719a5.5,5.5,0,0,1,11.006-.111c0,.037,0,.074,0,.111s0,.074,0,.111a5.5,5.5,0,0,1-11.006-.111ZM89.1,69.826a5.5,5.5,0,1,1,5.5-5.5A5.511,5.511,0,0,1,89.1,69.826Zm6.555-11.36a5.51,5.51,0,0,1-5.5-5.394c0-.037,0-.074,0-.111s0-.074,0-.111a5.5,5.5,0,1,1,5.5,5.615Zm6.556-11.359a5.51,5.51,0,0,1-5.5-5.394c0-.037,0-.074,0-.111s0-.074,0-.111a5.5,5.5,0,1,1,5.5,5.615Zm6.555-11.359a5.51,5.51,0,0,1-5.5-5.394c0-.037,0-.074,0-.111s0-.074,0-.111a5.5,5.5,0,1,1,5.5,5.615Z" transform="translate(-61.819)" fill="#3498af"/></g><g transform="translate(48.241 29.189)"><ellipse cx="1.054" cy="1.054" rx="1.054" ry="1.054" fill="#3498af"/></g><g transform="translate(41.685 40.548)"><ellipse cx="1.054" cy="1.054" rx="1.054" ry="1.054" fill="#3498af"/></g><g transform="translate(22.013 29.189)"><ellipse cx="1.054" cy="1.054" rx="1.054" ry="1.054" fill="#3498af"/></g></svg>